<?xml version="1.0" encoding="UTF-8" standalone="no"?>
<!DOCTYPE svg PUBLIC "-//W3C//DTD SVG 1.1//EN" "http://www.w3.org/Graphics/SVG/1.1/DTD/svg11.dtd">
<svg width="100%" height="100%" viewBox="0 0 1024 1024" version="1.1" xmlns="http://www.w3.org/2000/svg" xmlns:xlink="http://www.w3.org/1999/xlink" xml:space="preserve" xmlns:serif="http://www.serif.com/" style="fill-rule:evenodd;clip-rule:evenodd;stroke-linecap:round;stroke-linejoin:round;stroke-miterlimit:1.5;">
    <g transform="matrix(-1024,-6.27019e-14,-6.27019e-14,1024,1024,512)">
        <path d="M1,0.261C1,0.393 0.893,0.5 0.761,0.5L0.239,0.5C0.107,0.5 0,0.393 0,0.261L0,-0.261C0,-0.393 0.107,-0.5 0.239,-0.5L0.761,-0.5C0.893,-0.5 1,-0.393 1,-0.261L1,0.261Z" style="fill:rgb(75,217,255);fill-rule:nonzero;"/>
        <clipPath id="_clip1">
            <path d="M1,0.261C1,0.393 0.893,0.5 0.761,0.5L0.239,0.5C0.107,0.5 0,0.393 0,0.261L0,-0.261C0,-0.393 0.107,-0.5 0.239,-0.5L0.761,-0.5C0.893,-0.5 1,-0.393 1,-0.261L1,0.261Z" clip-rule="nonzero"/>
        </clipPath>
        <g clip-path="url(#_clip1)">
            <g transform="matrix(-0.00267142,-1.63577e-19,-1.63577e-19,0.00267142,1.3109,-0.599759)">
                <path d="M303.546,149.536C331.231,110.113 386.601,110.113 414.287,132.433C441.973,154.752 441.973,199.39 414.287,244.029C394.907,277.508 345.074,310.987 303.546,333.306C262.018,310.987 212.184,277.508 192.805,244.029C165.119,199.39 165.119,154.752 192.805,132.433C220.49,110.113 275.86,110.113 303.546,149.536Z" style="fill:rgb(202,253,97);stroke:white;stroke-width:11.7px;"/>
            </g>
        </g>
    </g>
</svg>
