<?xml version="1.0" encoding="UTF-8" standalone="no"?>
<!DOCTYPE svg PUBLIC "-//W3C//DTD SVG 1.1//EN" "http://www.w3.org/Graphics/SVG/1.1/DTD/svg11.dtd">
<svg width="100%" height="100%" viewBox="0 0 512 512" version="1.1" xmlns="http://www.w3.org/2000/svg" xmlns:xlink="http://www.w3.org/1999/xlink" xml:space="preserve" xmlns:serif="http://www.serif.com/" style="fill-rule:evenodd;clip-rule:evenodd;stroke-linecap:round;stroke-linejoin:round;stroke-miterlimit:1.5;">
    <path d="M112.294,279.607C120.715,265.019 134.962,234.407 167.343,233.208C180.352,232.726 195.198,236.593 205.669,244.737C208.282,246.769 214.894,252.7 215.818,257.469C216.319,260.055 204.26,261.262 201.928,259.102C194.299,252.036 185.895,249.074 175.537,249.792C170.747,250.124 160.105,253.569 155.786,256.42C140.435,266.554 132.066,276.379 133.124,285.799C134.111,294.59 131.28,309.584 141.058,311.027C149.048,312.206 166.097,310.747 168.536,309.916C194.065,301.222 180.702,287.178 200.008,272.572C217.408,259.41 214.903,282.862 211.84,292.313C202.75,320.366 187.968,333.181 157.826,336.299C144.615,337.666 128.15,332.774 116.485,341.646C110.921,345.877 42.805,416.959 38.037,419.431" style="fill:none;stroke:black;stroke-width:1px;"/>
    <path d="M179.38,233.038C160.85,216.064 132.046,223.815 110.7,253.305C105.222,260.873 99.503,272.78 96.643,278.733" style="fill:none;stroke:black;stroke-width:1px;"/>
    <path d="M161.805,224.409C155.501,218.361 140.254,215.282 126.128,220.874C105.29,229.121 84.6,284.953 61.425,310.702C51.126,322.146 12.682,360.123 12.541,359.578" style="fill:none;stroke:black;stroke-width:1px;"/>
</svg>
