<?xml version="1.0" encoding="UTF-8" standalone="no"?>
<!DOCTYPE svg PUBLIC "-//W3C//DTD SVG 1.1//EN" "http://www.w3.org/Graphics/SVG/1.1/DTD/svg11.dtd">
<svg width="100%" height="100%" viewBox="0 0 512 512" version="1.1" xmlns="http://www.w3.org/2000/svg" xmlns:xlink="http://www.w3.org/1999/xlink" xml:space="preserve" xmlns:serif="http://www.serif.com/" style="fill-rule:evenodd;clip-rule:evenodd;stroke-linecap:round;stroke-linejoin:round;stroke-miterlimit:1.5;">
    <path d="M119.014,288.13C124.221,272.11 131.799,239.207 163.225,231.308C175.85,228.134 191.175,228.834 203.11,234.625C206.087,236.07 213.788,240.498 215.681,244.971C216.709,247.397 205.164,251.082 202.434,249.454C193.503,244.126 184.668,242.975 174.684,245.829C170.068,247.149 160.374,252.728 156.741,256.415C143.83,269.516 139.796,283.817 138.463,293.201C137.121,302.644 131.28,309.584 141.058,311.027C149.048,312.206 166.097,310.747 168.536,309.916C194.065,301.222 180.702,287.178 200.008,272.572C217.408,259.41 214.903,282.862 211.84,292.313C202.75,320.366 187.968,333.181 157.826,336.299C144.615,337.666 128.15,332.774 116.485,341.646C110.921,345.877 42.805,416.959 38.037,419.431" style="fill:none;stroke:black;stroke-width:1px;"/>
    <path d="M174.963,228.642C153.313,215.887 126.747,229.452 111.991,262.733C108.205,271.273 105.084,284.108 103.523,290.526" style="fill:none;stroke:black;stroke-width:1px;"/>
    <path d="M155.98,223.851C148.557,219.245 133.004,219.4 120.346,227.804C101.676,240.2 84.6,284.953 61.425,310.702C51.126,322.146 12.682,360.123 12.541,359.578" style="fill:none;stroke:black;stroke-width:1px;"/>
</svg>
